<svg version="1.1" xmlns="http://www.w3.org/2000/svg" xml:space="preserve" width="100%" height="100%" viewBox="0 0 80 80" style="fill:#82878c" role="img" aria-hidden="true" focusable="false"><g><path d="M10.621 23.225a6.986 6.986 0 0 0-4.841 8.612 6.986 6.986 0 0 0 8.612 4.842 6.986 6.986 0 0 0 4.841-8.612 6.986 6.986 0 0 0-8.612-4.842zm13.368-1.064 2.377 8.481 43.478-12.184-2.377-8.481Zm-8.732 17.606a6.986 6.986 0 0 0-4.842 8.612 6.986 6.986 0 0 0 8.612 4.842 6.986 6.986 0 0 0 4.842-8.612 6.986 6.986 0 0 0-8.612-4.842zm13.367-1.064 2.377 8.48L74.48 35l-2.377-8.482zm-8.731 17.605a6.986 6.986 0 1 0 3.77 13.454 6.986 6.986 0 0 0-3.77-13.454z"/></g></svg>
